<svg width="127" height="211" viewBox="0 0 127 211" fill="none" xmlns="http://www.w3.org/2000/svg">
<path fill-rule="evenodd" clip-rule="evenodd" d="M101.78 163.083C99.7609 163.382 98.0942 162.763 96.782 161.228C96.4339 161.744 95.9796 162.053 95.4189 162.156C95.1753 160.672 95.4788 159.436 96.3276 158.446C97.5035 159.178 98.564 160.106 99.5082 161.228C105.774 154.824 108.046 147.095 106.324 138.041C104.618 125.898 100.831 114.459 94.9645 103.723C93.6632 105.521 91.9974 106.758 89.9664 107.433C89.3602 107.433 88.755 107.433 88.1489 107.433C89.5002 106.224 91.0151 105.142 92.6926 104.187C93.8176 103.547 93.8176 103.083 92.6926 102.796C93.8794 101.899 94.4856 100.661 94.5101 99.0855C97.6289 96.9968 100.659 94.678 103.598 92.1293C101.266 88.1262 98.8421 84.2613 96.3276 80.5355C95.4207 76.8209 93.6032 73.7286 90.8751 71.2605C89.5365 68.5272 88.1734 65.7447 86.7857 62.913C83.4461 58.1197 79.9628 53.4822 76.3351 49.0005C79.413 40.5881 85.1691 35.6408 93.6014 34.1605C96.2549 45.0865 95.6488 55.9076 91.7839 66.623C91.8947 68.7479 92.6517 70.6029 94.0557 72.188C96.9474 62.6747 98.6131 52.9359 99.0539 42.9718C99.0639 40.0817 98.4586 37.4541 97.2364 35.088C96.5593 30.189 94.1357 28.7977 89.9664 30.9143C81.0415 35.2234 75.2864 42.1797 72.7001 51.783C68.8243 52.6539 64.8867 52.9628 60.8864 52.7105C57.8811 52.1995 54.8523 51.8906 51.7989 51.783C48.7009 51.5502 45.6721 51.86 42.7114 52.7105C42.1007 51.3666 41.4945 50.1302 40.8939 49.0005C37.0907 40.7022 31.033 34.6734 22.7189 30.9143C18.8549 29.6028 16.583 30.994 15.9032 35.088C13.8958 47.4572 15.1081 59.5147 19.5382 71.2605C20.3334 69.9871 20.7878 68.5958 20.9014 67.0868C17.9216 56.504 17.4672 45.8377 19.5382 35.088C21.1067 34.09 22.7725 33.9351 24.5364 34.6243C30.3542 37.7787 34.5953 42.4162 37.2589 48.5368C36.1311 50.1423 35.2223 51.8424 34.5326 53.638C31.5492 55.9132 28.9747 58.6957 26.8082 61.9855C23.196 67.9521 20.0153 74.1358 17.2664 80.5355C14.7518 84.2613 12.3282 88.1262 9.99636 92.1293C18.1978 99.7357 27.5888 105.147 38.1676 108.361C36.8463 109.996 37.1498 111.233 39.0764 112.071C46.4536 115.987 54.3288 117.533 62.7039 116.708C64.7349 116.434 66.5524 116.744 68.1564 117.636C60.88 117.789 53.61 117.636 46.3464 117.172C44.2162 116.218 42.0961 115.601 39.9851 115.317C40.554 116.012 41.0084 116.786 41.3482 117.636C41.9544 121.964 41.9544 126.292 41.3482 130.621C39.7734 132.57 37.9559 132.879 35.8957 131.548C35.3996 128.436 35.5513 125.345 36.3501 122.273C36.1111 119.928 35.3541 117.764 34.0782 115.781C29.6435 129.645 27.6743 143.866 28.1714 158.446C41.6263 161.557 55.2576 162.794 69.0651 162.156C70.6691 163.047 72.4866 163.357 74.5176 163.083C60.4774 164.599 46.3918 163.98 32.2607 161.228C30.7095 161.235 29.3464 161.545 28.1714 162.156C27.5652 163.083 26.96 164.011 26.3539 164.938C26.8846 161.708 26.1276 158.925 24.082 156.591C23.3168 161.241 20.7423 163.715 16.3576 164.011C16.7693 175.013 18.8903 185.525 22.7189 195.546C23.2568 197.982 23.5595 200.456 23.6276 202.966C21.2676 203.098 19.1466 203.872 17.2664 205.284C19.9672 208.022 23.2986 209.105 27.2626 208.531C30.9476 208.461 34.5826 207.997 38.1676 207.139C39.2672 206.176 40.1759 205.093 40.8939 203.893C44.1535 200.628 45.6675 196.609 45.4376 191.836C46.0437 192.763 46.649 193.691 47.2551 194.618C46.2264 198.569 44.7115 202.279 42.7114 205.748C41.7972 206.154 41.7972 206.772 42.7114 207.603C34.7098 210.693 26.5311 211.157 18.1751 208.994C13.0061 202.785 7.40188 196.756 1.36323 190.908C0.446305 189.494 -0.00807029 187.947 0.000108461 186.271C3.75961 186.599 7.39461 186.135 10.9051 184.879C12.3073 183.137 13.973 181.746 15.9032 180.706C16.1222 174.764 15.517 168.89 14.0857 163.083C7.97257 157.715 5.09456 150.913 5.45261 142.678C6.45859 127.754 10.6997 113.841 18.1751 100.941C14.7528 97.9809 11.4213 95.0435 8.17886 92.1293C11.6194 86.1905 14.9518 80.1617 18.1751 74.043C14.2011 62.3074 12.5354 50.2499 13.177 37.8705C14.1902 34.7217 15.5534 31.7852 17.2664 29.0593C19.0839 28.4406 20.9014 28.4406 22.7189 29.0593C29.9816 32.7554 36.1911 37.8566 41.3482 44.363C41.3882 38.376 40.4795 32.5012 38.622 26.7405C29.728 21.9444 28.6684 15.9157 35.4414 8.65427C37.715 7.32609 39.9869 7.17212 42.257 8.19052C51.8261 -1.89326 61.9741 -2.66587 72.7001 5.87177C85.5735 6.03223 89.3602 12.061 84.0595 23.958C76.9294 27.9991 73.598 34.1828 74.0632 42.508C79.3567 34.0214 86.7776 29.5388 96.3276 29.0593C100.607 35.9979 101.97 43.5728 100.417 51.783C99.2138 59.1613 97.5472 66.4273 95.4189 73.5793C98.5068 79.8816 101.839 86.0653 105.415 92.1293C105.18 93.2988 104.574 94.2263 103.598 94.9118C100.624 96.4032 97.8979 98.2582 95.4189 100.477C102.925 113.491 107.166 127.558 108.141 142.678C107.99 145.461 107.839 148.243 107.687 151.026C106.185 155.328 104.216 159.347 101.78 163.083Z" fill="#3A1722"/>
<path fill-rule="evenodd" clip-rule="evenodd" d="M89.0576 36.0155C90.5516 35.8171 91.9147 36.1268 93.147 36.943C94.3947 46.538 93.3342 55.813 89.9664 64.768C86.3768 59.2485 82.4392 53.9923 78.1526 49.0005C80.5417 43.4559 84.1767 39.1273 89.0576 36.0155Z" fill="#F6776A"/>
<path fill-rule="evenodd" clip-rule="evenodd" d="M20.9014 36.0155C27.6806 37.9818 32.527 42.3104 35.4414 49.0005C30.8313 54.3958 26.4384 59.9608 22.2645 65.6955C19.859 55.8909 19.4047 45.9982 20.9014 36.0155Z" fill="#F67669"/>
<path fill-rule="evenodd" clip-rule="evenodd" d="M40.8939 49.0006C39.1372 51.2609 37.168 53.4257 34.987 55.4931C34.5653 54.9421 34.4136 54.3235 34.5326 53.6381C35.2223 51.8424 36.1311 50.1423 37.2589 48.5368C34.5953 42.4162 30.3542 37.7787 24.5364 34.6243C22.7725 33.9352 21.1067 34.0901 19.5382 35.0881C17.4672 45.8378 17.9216 56.504 20.9014 67.0868C20.7878 68.5958 20.3334 69.9871 19.5382 71.2606C15.1081 59.5147 13.8958 47.4572 15.9032 35.0881C16.583 30.9941 18.8549 29.6028 22.7189 30.9143C31.033 34.6735 37.0907 40.7022 40.8939 49.0006Z" fill="#F09F52"/>
<path fill-rule="evenodd" clip-rule="evenodd" d="M70.8826 21.1755C68.7407 21.3267 66.6206 21.1727 64.5214 20.7118C64.0161 20.3565 63.7135 19.8928 63.6126 19.3205C69.3069 20.1246 73.548 17.9599 76.3351 12.828C77.3193 13.6303 77.4702 14.5578 76.7895 15.6105C74.9148 17.6825 72.9464 19.5375 70.8826 21.1755Z" fill="#37141D"/>
<path fill-rule="evenodd" clip-rule="evenodd" d="M64.5214 2.62549C67.4121 4.79306 70.441 6.80295 73.6089 8.65424C83.8087 7.93543 86.9893 12.418 83.1508 22.103C78.5479 24.0201 75.5182 27.4203 74.0633 32.3055C72.9264 36.5655 72.1685 40.8932 71.7914 45.2905C70.2765 45.2905 68.7625 45.2905 67.2476 45.2905C67.294 37.0654 68.5054 29.0268 70.8826 21.1755C72.9464 19.5375 74.9148 17.6825 76.7895 15.6105C77.4702 14.5578 77.3193 13.6303 76.3351 12.828C73.548 17.9598 69.3069 20.1246 63.6126 19.3205C66.7233 13.8909 67.0259 8.3259 64.5214 2.62549Z" fill="#C0D9DC"/>
<path fill-rule="evenodd" clip-rule="evenodd" d="M64.5214 2.6255C67.0259 8.32591 66.7233 13.8909 63.6126 19.3205C63.7135 19.8928 64.0161 20.3565 64.5214 20.7117C66.6206 21.1727 68.7407 21.3267 70.8826 21.1755C68.5053 29.0268 67.294 37.0654 67.2476 45.2905C59.3715 45.2905 51.4963 45.2905 43.6201 45.2905C43.3466 38.6663 42.2861 32.1738 40.4395 25.813C37.4788 24.2984 35.0552 22.1336 33.1695 19.3205C32.2099 11.6584 35.3905 8.56706 42.7114 10.0455C47.3678 5.5935 52.8203 2.811 59.0689 1.698C60.93 1.85753 62.7475 2.16639 64.5214 2.6255Z" fill="#F9F9F9"/>
<path fill-rule="evenodd" clip-rule="evenodd" d="M41.8026 13.7555C42.1634 12.8048 42.7686 12.6499 43.6201 13.2918C45.7829 15.4751 48.2057 17.3301 50.8901 18.8568C50.4357 19.3205 49.9814 19.7843 49.527 20.248C46.4336 18.6101 43.8582 16.4462 41.8026 13.7555Z" fill="#442029"/>
<path fill-rule="evenodd" clip-rule="evenodd" d="M43.6201 47.1455C52.7131 46.9915 61.8006 47.1455 70.8826 47.6092C68.9443 49.9716 66.3698 51.053 63.1582 50.8555C56.6598 50.197 50.1477 49.8881 43.6201 49.928C43.6201 49.0005 43.6201 48.073 43.6201 47.1455Z" fill="#6493AA"/>
<path fill-rule="evenodd" clip-rule="evenodd" d="M40.8939 49.0005C41.4945 50.1302 42.1007 51.3665 42.7114 52.7105C45.6721 51.86 48.7009 51.5502 51.7989 51.783C51.1855 58.2532 50.7311 64.7457 50.4357 71.2605C49.7505 74.5893 47.7813 76.4443 44.5289 76.8255C46.071 71.5981 44.2535 69.7431 39.0764 71.2605C37.736 73.9901 38.0386 76.4628 39.9851 78.6805C38.3566 79.4308 36.5391 79.8946 34.5326 80.0717C28.7848 80.5355 23.0297 80.6895 17.2664 80.5355C20.0153 74.1357 23.196 67.9521 26.8082 61.9855C28.9747 58.6956 31.5492 55.9131 34.5326 53.638C34.4136 54.3234 34.5653 54.9421 34.987 55.493C37.168 53.4256 39.1372 51.2608 40.8939 49.0005Z" fill="#FAAE65"/>
<path fill-rule="evenodd" clip-rule="evenodd" d="M97.2364 35.088C97.2954 35.4942 97.1446 35.804 96.782 36.0155C96.0404 34.7884 94.9799 34.1707 93.6014 34.1605C85.1691 35.6408 79.413 40.5881 76.3351 49.0005C79.9628 53.4822 83.4461 58.1197 86.7857 62.913C88.1734 65.7447 89.5365 68.5272 90.8751 71.2605C91.3758 74.3277 91.6784 77.4191 91.7839 80.5355C85.4153 80.6895 79.0541 80.5355 72.7001 80.0717C71.8677 79.8139 71.2625 79.3501 70.8826 78.6805C75.1837 71.9227 73.3662 69.4491 65.4301 71.2605C65.4301 72.8066 65.4301 74.3519 65.4301 75.898C62.6875 75.1068 61.0218 73.2518 60.432 70.333C60.4438 64.473 60.5946 58.5992 60.8864 52.7105C64.8867 52.9628 68.8243 52.6539 72.7001 51.783C75.2864 42.1797 81.0415 35.2234 89.9664 30.9142C94.1357 28.7977 96.5593 30.1889 97.2364 35.088Z" fill="#F9AC64"/>
<path fill-rule="evenodd" clip-rule="evenodd" d="M93.6014 34.1605C94.98 34.1707 96.0405 34.7884 96.782 36.0155C97.1446 35.8041 97.2955 35.4943 97.2364 35.088C98.4587 37.4541 99.0639 40.0817 99.0539 42.9718C98.6132 52.9359 96.9474 62.6747 94.0558 72.188C92.6518 70.6029 91.8948 68.7479 91.7839 66.623C95.6488 55.9076 96.255 45.0865 93.6014 34.1605Z" fill="#B14515"/>
<path fill-rule="evenodd" clip-rule="evenodd" d="M51.7989 51.783C54.8523 51.8906 57.8811 52.1995 60.8864 52.7105C60.5947 58.5992 60.4438 64.4731 60.432 70.333C61.0218 73.2519 62.6875 75.1069 65.4301 75.898C66.8414 77.6464 68.6589 78.5739 70.8826 78.6805C71.2625 79.3502 71.8677 79.8139 72.7001 80.0718C79.0541 80.5355 85.4154 80.6895 91.7839 80.5355C92.5409 88.3757 91.3295 95.7957 88.1489 102.796C75.5327 110.2 61.9014 112.828 47.2551 110.679C44.1227 110.189 41.0929 109.416 38.1676 108.361C27.5889 105.147 18.1978 99.7357 9.99637 92.1293C12.3282 88.1262 14.7519 84.2613 17.2664 80.5355C23.0297 80.6895 28.7848 80.5355 34.5326 80.0718C36.5391 79.8946 38.3566 79.4309 39.9851 78.6805C41.8508 78.7714 43.3657 78.1528 44.5289 76.8255C47.7813 76.4443 49.7505 74.5893 50.4357 71.2605C50.7311 64.7458 51.1855 58.2533 51.7989 51.783Z" fill="#FAF8D6"/>
<path fill-rule="evenodd" clip-rule="evenodd" d="M44.5289 76.8255C43.3657 78.1527 41.8508 78.7714 39.9851 78.6805C38.0386 76.4628 37.736 73.9901 39.0764 71.2605C44.2535 69.7431 46.071 71.5981 44.5289 76.8255Z" fill="#27060F"/>
<path fill-rule="evenodd" clip-rule="evenodd" d="M70.8826 78.6805C68.6589 78.5739 66.8414 77.6464 65.4301 75.898C65.4301 74.3519 65.4301 72.8067 65.4301 71.2605C73.3663 69.4491 75.1838 71.9228 70.8826 78.6805Z" fill="#330E14"/>
<path fill-rule="evenodd" clip-rule="evenodd" d="M90.8751 71.2605C93.6032 73.7286 95.4207 76.8209 96.3276 80.5355C94.8127 80.5355 93.2987 80.5355 91.7838 80.5355C91.6784 77.4191 91.3758 74.3277 90.8751 71.2605Z" fill="#B75226"/>
<path fill-rule="evenodd" clip-rule="evenodd" d="M50.8901 78.6805C61.6161 78.4338 63.4336 82.1438 56.3426 89.8105C56.9269 93.0335 58.7444 94.115 61.7951 93.0567C62.872 91.8018 64.0843 90.7194 65.4301 89.8105C66.5488 90.878 66.5488 91.9595 65.4301 93.0567C62.1132 95.9756 58.629 96.1295 54.9795 93.5205C50.0777 96.085 45.6857 95.3124 41.8026 91.2017C42.257 91.0468 42.7114 90.8929 43.1657 90.738C46.4718 92.3008 49.955 92.9185 53.6164 92.593C53.6654 89.3773 52.3023 86.9037 49.527 85.173C48.77 82.6956 49.2244 80.5318 50.8901 78.6805Z" fill="#340F16"/>
<path fill-rule="evenodd" clip-rule="evenodd" d="M91.7839 80.5355C93.2988 80.5355 94.8128 80.5355 96.3276 80.5355C98.8422 84.2613 101.266 88.1262 103.598 92.1293C100.659 94.678 97.629 96.9968 94.5101 99.0855C92.3746 100.348 90.2536 101.584 88.1489 102.796C91.3295 95.7957 92.5409 88.3757 91.7839 80.5355Z" fill="#E0AE9A"/>
<path fill-rule="evenodd" clip-rule="evenodd" d="M19.9926 103.723C24.0902 104.245 28.0278 105.946 31.8064 108.824C27.4998 108.177 23.5622 106.477 19.9926 103.723Z" fill="#48768E"/>
<path fill-rule="evenodd" clip-rule="evenodd" d="M92.6926 102.796C93.8176 103.083 93.8176 103.547 92.6926 104.187C91.015 105.142 89.5001 106.224 88.1488 107.433C87.3101 108.178 86.4013 108.333 85.4226 107.897C87.4255 105.491 89.8482 103.79 92.6926 102.796Z" fill="#2E6A8D"/>
<path fill-rule="evenodd" clip-rule="evenodd" d="M19.9926 143.606C15.2144 142.095 10.9733 139.621 7.27011 136.186C9.78553 125.18 13.5723 114.668 18.6295 104.651C21.9301 107.531 25.7168 109.541 29.9889 110.679C28.553 122.261 25.2216 133.237 19.9926 143.606Z" fill="#F9AD65"/>
<path fill-rule="evenodd" clip-rule="evenodd" d="M78.1526 110.216C78.1526 111.143 78.1526 112.071 78.1526 112.998C73.1 115.018 67.951 116.254 62.7039 116.708C54.3288 117.533 46.4536 115.987 39.0764 112.071C39.2899 111.517 39.7443 111.208 40.4395 111.143C53.0666 113.702 65.6373 113.393 78.1526 110.216Z" fill="#EBE9EA"/>
<path fill-rule="evenodd" clip-rule="evenodd" d="M106.324 138.041C102.14 140.948 97.5963 143.112 92.6926 144.533C91.0787 133.769 88.9586 123.103 86.3314 112.534C86.6958 110.16 87.9072 108.46 89.9664 107.433C91.9974 106.758 93.6632 105.521 94.9645 103.723C100.831 114.459 104.618 125.898 106.324 138.041Z" fill="#A64620"/>
<path fill-rule="evenodd" clip-rule="evenodd" d="M30.8976 121.346C30.2915 121.346 29.9889 121.037 29.9889 120.418C29.8989 117.475 30.5051 114.693 31.8064 112.071C32.109 112.689 32.4125 113.307 32.7151 113.926C31.9173 116.365 31.3111 118.839 30.8976 121.346Z" fill="#CAD4D2"/>
<path fill-rule="evenodd" clip-rule="evenodd" d="M32.7151 109.288C36.0002 110.699 38.2721 113.171 39.5307 116.708C39.9842 120.405 40.136 124.115 39.9851 127.838C39.0764 127.838 38.1676 127.838 37.2589 127.838C37.4097 124.115 37.258 120.405 36.8045 116.708C35.7485 113.945 34.3854 111.472 32.7151 109.288Z" fill="#43687C"/>
<path fill-rule="evenodd" clip-rule="evenodd" d="M68.1564 117.636C72.2103 117.142 76.1479 116.215 79.9701 114.853C81.5813 123.347 82.4901 131.695 82.6964 139.896C80.0255 136.725 76.6932 134.407 72.7001 132.939C68.2318 131.816 65.5055 133.516 64.5214 138.041C65.3292 140.618 66.3898 143.091 67.702 145.461C72.4629 150.942 77.7637 155.734 83.6051 159.837C78.8669 161.312 74.0196 162.086 69.0651 162.156C55.2576 162.794 41.6263 161.557 28.1714 158.446C27.6743 143.866 29.6435 129.645 34.0782 115.781C35.3541 117.764 36.1111 119.928 36.3501 122.273C35.5513 125.345 35.3996 128.436 35.8957 131.548C37.9559 132.879 39.7734 132.57 41.3482 130.621C41.9544 126.292 41.9544 121.964 41.3482 117.636C41.0084 116.786 40.554 116.012 39.9851 115.317C42.0961 115.601 44.2163 116.218 46.3464 117.172C53.61 117.636 60.88 117.789 68.1564 117.636Z" fill="#F9F8F8"/>
<path fill-rule="evenodd" clip-rule="evenodd" d="M82.6964 139.895C82.4901 131.695 81.5813 123.347 79.9701 114.853C81.5177 112.232 83.1835 111.923 84.9682 113.925C87.6836 125.294 89.5011 136.733 90.4207 148.243C87.8226 145.353 85.2481 142.57 82.6964 139.895Z" fill="#BCD6DA"/>
<path fill-rule="evenodd" clip-rule="evenodd" d="M29.9889 120.418C29.9889 121.037 30.2915 121.346 30.8976 121.346C30.1161 124.25 29.2073 127.033 28.1714 129.693C28.2159 126.374 28.8211 123.283 29.9889 120.418Z" fill="#507184"/>
<path fill-rule="evenodd" clip-rule="evenodd" d="M7.27009 136.186C10.9732 139.621 15.2144 142.095 19.9926 143.606C20.9013 144.224 21.8101 144.842 22.7188 145.461C22.7188 146.388 22.7188 147.316 22.7188 148.243C21.4829 151.137 20.726 154.228 20.447 157.518C19.4937 159.265 18.1306 160.503 16.3576 161.228C12.7362 159.539 10.1608 156.757 8.63322 152.881C7.39641 147.402 6.94203 141.837 7.27009 136.186Z" fill="#F9F7D4"/>
<path fill-rule="evenodd" clip-rule="evenodd" d="M28.1714 129.693C28.0151 133.435 27.5607 137.145 26.8082 140.823C24.3446 143.295 23.4359 142.676 24.082 138.968C25.745 135.893 27.1081 132.801 28.1714 129.693Z" fill="#447088"/>
<path fill-rule="evenodd" clip-rule="evenodd" d="M106.324 138.041C108.046 147.095 105.774 154.824 99.5082 161.228C98.564 160.106 97.5035 159.178 96.3276 158.446C94.0675 154.178 92.8553 149.541 92.6926 144.533C97.5962 143.112 102.14 140.948 106.324 138.041Z" fill="#DFAE99"/>
<path fill-rule="evenodd" clip-rule="evenodd" d="M23.6276 148.243C23.325 148.243 23.0215 148.243 22.7189 148.243C22.7189 147.316 22.7189 146.388 22.7189 145.461C23.703 145.424 24.6118 145.115 25.4451 144.533C26.4993 148.205 26.651 151.915 25.8995 155.663C25.0226 152.627 24.2656 150.154 23.6276 148.243Z" fill="#E3904D"/>
<path fill-rule="evenodd" clip-rule="evenodd" d="M94.5101 99.0855C94.4856 100.661 93.8794 101.899 92.6926 102.796C89.8482 103.79 87.4255 105.491 85.4226 107.897C86.4013 108.333 87.3101 108.178 88.1488 107.433C88.755 107.433 89.3602 107.433 89.9663 107.433C87.9071 108.46 86.6958 110.16 86.3313 112.534C88.9585 123.103 91.0787 133.769 92.6926 144.533C92.8553 149.541 94.0675 154.178 96.3276 158.446C95.4788 159.436 95.1753 160.672 95.4188 162.156C95.9795 162.053 96.4339 161.744 96.782 161.228C98.0942 162.763 99.7609 163.382 101.78 163.083C110.869 162.57 119.048 165.043 126.316 170.503C126.478 179.002 123.449 186.267 117.229 192.299C115.289 192.888 113.471 192.578 111.776 191.372C107.693 188.132 103.907 184.576 100.417 180.706C100.054 180.917 99.9035 181.227 99.9626 181.633C99.3565 181.633 98.7512 181.633 98.1451 181.633C99.7836 175.012 97.8152 169.755 92.2382 165.866C92.3509 170.165 92.5018 174.493 92.6926 178.851C92.0865 176.996 91.4812 175.141 90.8751 173.286C91.9374 167.881 90.2717 163.862 85.877 161.228C83.8078 161.8 81.8385 162.419 79.9701 163.083C78.1526 163.083 76.3351 163.083 74.5176 163.083C72.4865 163.357 70.669 163.047 69.0651 162.156C74.0196 162.086 78.8669 161.312 83.6051 159.837C77.7637 155.734 72.4629 150.942 67.702 145.461C66.3897 143.091 65.3292 140.618 64.5213 138.041C65.5055 133.516 68.2318 131.816 72.7001 132.939C76.6931 134.407 80.0255 136.725 82.6963 139.896C85.2481 142.57 87.8226 145.353 90.4207 148.243C89.5011 136.733 87.6836 125.294 84.9682 113.926C83.1834 111.923 81.5177 112.232 79.9701 114.853C76.1479 116.215 72.2103 117.142 68.1563 117.636C66.5524 116.744 64.7349 116.434 62.7038 116.708C67.951 116.254 73.0999 115.018 78.1526 112.998C80.5826 112.069 82.7036 110.677 84.5138 108.824C84.2112 108.361 83.9077 107.897 83.6051 107.433C81.6931 108.378 79.8756 109.306 78.1526 110.216C65.6373 113.393 53.0666 113.702 40.4395 111.143C39.7443 111.208 39.2899 111.517 39.0763 112.071C37.1498 111.233 36.8463 109.996 38.1676 108.361C41.0929 109.416 44.1226 110.189 47.2551 110.679C61.9014 112.828 75.5327 110.2 88.1488 102.796C90.2535 101.584 92.3745 100.348 94.5101 99.0855Z" fill="#360B14"/>
<path fill-rule="evenodd" clip-rule="evenodd" d="M95.4189 162.156C96.4412 163.666 97.6535 165.058 99.0539 166.329C98.4477 166.948 97.8425 166.948 97.2364 166.329C90.2853 160.618 83.0153 155.362 75.4264 150.562C71.5342 147.874 69.2623 144.318 68.6107 139.896C76.0907 149.238 85.0264 156.658 95.4189 162.156Z" fill="#5F0706"/>
<path fill-rule="evenodd" clip-rule="evenodd" d="M86.3313 151.953C86.3313 152.572 86.0287 152.881 85.4226 152.881C79.8274 149.091 74.9811 144.453 70.8826 138.968C71.1852 138.659 71.4887 138.349 71.7913 138.041C77.2284 142.045 82.0748 146.682 86.3313 151.953Z" fill="#DDE3E5"/>
<path fill-rule="evenodd" clip-rule="evenodd" d="M78.1526 112.998C78.1526 112.07 78.1526 111.143 78.1526 110.215C79.8756 109.306 81.6931 108.378 83.6051 107.433C83.9077 107.897 84.2113 108.36 84.5139 108.824C82.7036 110.677 80.5826 112.069 78.1526 112.998Z" fill="#738FA5"/>
<path fill-rule="evenodd" clip-rule="evenodd" d="M86.3313 151.953C87.6599 152.842 88.8713 153.923 89.9663 155.199C87.7599 155.892 86.2459 155.119 85.4226 152.881C86.0287 152.881 86.3313 152.572 86.3313 151.953Z" fill="#407087"/>
<path fill-rule="evenodd" clip-rule="evenodd" d="M22.7189 148.243C23.0215 148.243 23.325 148.243 23.6276 148.243C23.265 152.813 22.0536 157.141 19.9926 161.228C18.6676 162.417 17.4554 162.417 16.3576 161.228C18.1306 160.503 19.4937 159.265 20.447 157.518C20.726 154.228 21.483 151.137 22.7189 148.243Z" fill="#DDAD9A"/>
<path fill-rule="evenodd" clip-rule="evenodd" d="M74.5176 163.083C76.3351 163.083 78.1526 163.083 79.9701 163.083C81.0143 163.353 81.6204 164.126 81.7876 165.402C80.0255 173.312 78.208 181.196 76.3351 189.053C59.8931 190.676 43.5356 190.058 27.2626 187.198C27.6088 178.852 27.9115 170.505 28.1714 162.156C29.3464 161.545 30.7095 161.235 32.2607 161.228C46.3918 163.98 60.4774 164.599 74.5176 163.083Z" fill="#FAFAFA"/>
<path fill-rule="evenodd" clip-rule="evenodd" d="M26.3539 164.938C25.5796 172.656 25.4278 180.385 25.8995 188.126C31.2975 189.317 36.5982 190.555 41.8026 191.836C40.1914 193.127 38.3739 194.209 36.3501 195.082C31.8164 195.545 27.2726 195.699 22.7189 195.546C18.8903 185.525 16.7693 175.013 16.3576 164.011C20.7423 163.715 23.3168 161.241 24.082 156.591C26.1276 158.925 26.8846 161.708 26.3539 164.938Z" fill="#F7A960"/>
<path fill-rule="evenodd" clip-rule="evenodd" d="M98.1451 181.633C97.4008 185.598 96.1885 189.308 94.5101 192.763C90.6797 190.967 86.4395 190.349 81.7876 190.908C85.2526 189.714 88.8876 188.787 92.6926 188.125C92.6926 185.034 92.6926 181.942 92.6926 178.85C92.5017 174.493 92.3509 170.165 92.2382 165.865C97.8152 169.755 99.7835 175.012 98.1451 181.633Z" fill="#A2411C"/>
<path fill-rule="evenodd" clip-rule="evenodd" d="M110.868 167.72C112.384 166.645 114.051 166.645 115.866 167.72C119.129 168.665 122.007 170.211 124.499 172.358C124.045 172.667 123.59 172.977 123.136 173.285C118.862 171.799 114.773 169.944 110.868 167.72Z" fill="#530605"/>
<path fill-rule="evenodd" clip-rule="evenodd" d="M109.959 169.576C114.001 171.177 117.636 173.496 120.864 176.532C119.584 176.824 118.373 176.515 117.229 175.604C114.511 173.782 112.088 171.772 109.959 169.576Z" fill="#C1C4C9"/>
<path fill-rule="evenodd" clip-rule="evenodd" d="M90.8751 173.286C90.8751 177.923 90.8751 182.561 90.8751 187.198C86.0687 188.114 81.2224 188.733 76.3351 189.053C78.208 181.196 80.0255 173.312 81.7876 165.402C81.6204 164.126 81.0143 163.353 79.9701 163.083C81.8385 162.419 83.8078 161.8 85.877 161.228C90.2717 163.862 91.9374 167.881 90.8751 173.286Z" fill="#C2DADD"/>
<path fill-rule="evenodd" clip-rule="evenodd" d="M106.324 173.286C107.324 172.267 108.536 172.112 109.959 172.822C112.86 175.319 115.888 177.637 119.046 179.778C118.744 180.087 118.44 180.397 118.138 180.706C114.296 177.978 110.359 175.504 106.324 173.286Z" fill="#5A0504"/>
<path fill-rule="evenodd" clip-rule="evenodd" d="M106.324 175.141C110.628 177.517 114.565 180.454 118.138 183.952C116.858 184.244 115.647 183.935 114.503 183.024C112.542 181.251 110.421 179.705 108.141 178.387C106.939 177.63 106.334 176.548 106.324 175.141Z" fill="#CAD2D6"/>
<path fill-rule="evenodd" clip-rule="evenodd" d="M103.598 181.633C104.598 180.615 105.81 180.46 107.233 181.169C109.184 183.244 111.304 185.099 113.594 186.734C112.685 187.353 111.776 187.353 110.868 186.734C108.537 184.805 106.113 183.105 103.598 181.633Z" fill="#5D0902"/>
<path fill-rule="evenodd" clip-rule="evenodd" d="M18.1751 190.908C16.5503 191.949 14.7328 192.104 12.7226 191.372C10.0463 191.243 7.92532 190.16 6.36136 188.126C10.4344 187.047 13.9185 184.883 16.812 181.633C17.5626 184.687 18.017 187.779 18.1751 190.908Z" fill="#F4F2CF"/>
<path fill-rule="evenodd" clip-rule="evenodd" d="M28.1713 162.156C27.9114 170.505 27.6088 178.852 27.2626 187.198C43.5356 190.058 59.8931 190.676 76.3351 189.053C81.2224 188.733 86.0687 188.114 90.8751 187.198C90.8751 182.561 90.8751 177.923 90.8751 173.286C91.4812 175.141 92.0865 176.996 92.6926 178.851C92.6926 181.942 92.6926 185.034 92.6926 188.126C88.8877 188.787 85.2527 189.714 81.7876 190.908C80.5762 190.908 79.364 190.908 78.1526 190.908C75.2764 190.411 72.8537 191.183 70.8826 193.227C72.2721 198.726 74.6948 203.673 78.1526 208.067C81.4714 208.53 84.8028 208.684 88.1489 208.531C91.9156 208.688 95.5506 208.07 99.0539 206.676C96.602 204.504 94.1784 202.34 91.7839 200.183C92.9071 198.19 93.8158 196.026 94.5101 193.691C94.5101 193.382 94.5101 193.072 94.5101 192.763C96.1886 189.308 97.4008 185.598 98.1451 181.633C98.7512 181.633 99.3565 181.633 99.9626 181.633C98.6022 188.117 96.7847 194.455 94.5101 200.647C97.4363 201.821 99.5564 203.831 100.871 206.676C100.335 207.88 99.4264 208.653 98.1451 208.994C90.8524 210.82 83.5824 210.82 76.3351 208.994C74.9274 207.868 73.8678 206.477 73.1545 204.821C72.2212 201.01 71.0098 197.3 69.5195 193.691C61.6406 200.417 52.7049 205.054 42.7113 207.603C41.7971 206.772 41.7971 206.154 42.7113 205.748C52.1987 202.761 60.9827 198.279 69.0651 192.299C61.8015 191.836 54.5315 191.682 47.2551 191.836C47.2551 192.763 47.2551 193.691 47.2551 194.618C46.649 193.691 46.0437 192.763 45.4376 191.836C44.8315 191.836 44.2262 191.836 43.6201 191.836C43.014 191.836 42.4087 191.836 41.8026 191.836C36.5982 190.555 31.2974 189.317 25.8995 188.126C25.4278 180.385 25.5796 172.656 26.3538 164.938C26.96 164.011 27.5652 163.083 28.1713 162.156Z" fill="#37141E"/>
<path fill-rule="evenodd" clip-rule="evenodd" d="M6.36135 188.126C7.92531 190.16 10.0463 191.243 12.7226 191.372C14.7328 192.104 16.5503 191.949 18.1751 190.908C19.72 194.086 20.9322 197.487 21.8101 201.111C20.6869 201.905 19.4755 202.523 18.1751 202.966C11.4985 199.87 6.34954 195.078 2.72635 188.589C3.90136 188.135 5.11364 187.98 6.36135 188.126Z" fill="#E0AE9A"/>
<path fill-rule="evenodd" clip-rule="evenodd" d="M42.7114 205.748C44.7115 202.279 46.2264 198.569 47.2551 194.618C47.2551 193.691 47.2551 192.763 47.2551 191.836C54.5315 191.682 61.8015 191.836 69.0651 192.299C60.9827 198.279 52.1987 202.761 42.7114 205.748Z" fill="#DDAB97"/>
<path fill-rule="evenodd" clip-rule="evenodd" d="M78.1526 190.908C79.2876 192.425 80.8025 193.508 82.6963 194.154C86.683 194.809 90.6206 194.655 94.5101 193.691C93.8158 196.026 92.9071 198.19 91.7838 200.183C90.6515 202.922 89.4402 205.704 88.1488 208.531C84.8028 208.684 81.4714 208.53 78.1526 208.067C74.6948 203.673 72.2721 198.726 70.8826 193.227C72.8537 191.184 75.2764 190.411 78.1526 190.908Z" fill="#F9F5D3"/>
<path fill-rule="evenodd" clip-rule="evenodd" d="M78.1526 190.908C79.364 190.908 80.5763 190.908 81.7876 190.908C86.4395 190.349 90.6797 190.967 94.5101 192.763C94.5101 193.072 94.5101 193.382 94.5101 193.691C90.6207 194.655 86.6831 194.809 82.6964 194.154C80.8025 193.508 79.2876 192.425 78.1526 190.908Z" fill="#F08741"/>
<path fill-rule="evenodd" clip-rule="evenodd" d="M41.8026 191.836C42.4087 191.836 43.014 191.836 43.6201 191.836C42.5987 195.808 41.6899 199.827 40.8939 203.893C40.1759 205.093 39.2672 206.176 38.1676 207.139C34.5826 207.997 30.9476 208.461 27.2626 208.531C23.2986 209.105 19.9672 208.022 17.2664 205.284C19.1466 203.872 21.2676 203.098 23.6276 202.966C23.5595 200.456 23.2568 197.982 22.7189 195.546C27.2726 195.699 31.8164 195.545 36.3501 195.082C38.3739 194.209 40.1914 193.127 41.8026 191.836Z" fill="#F9F6D3"/>
<path fill-rule="evenodd" clip-rule="evenodd" d="M43.6201 191.836C44.2262 191.836 44.8315 191.836 45.4376 191.836C45.6675 196.609 44.1535 200.628 40.8939 203.893C41.6899 199.827 42.5987 195.808 43.6201 191.836Z" fill="#DCA993"/>
<path fill-rule="evenodd" clip-rule="evenodd" d="M91.7839 200.183C94.1785 202.34 96.6021 204.504 99.0539 206.675C95.5507 208.07 91.9157 208.688 88.1489 208.53C89.4402 205.704 90.6516 202.922 91.7839 200.183Z" fill="#DBAB95"/>
</svg>
